<?xml version="1.0" encoding="UTF-8"?>
<svg version="1.1" xmlns="http://www.w3.org/2000/svg" width="25" height="25">
<path d="M0 0 C2.05078125 0.03255208 4.1015625 0.06510417 6.15234375 0.09765625 C6.35859375 0.71640625 6.56484375 1.33515625 6.77734375 1.97265625 C8.70010263 4.9441927 10.81828902 5.22790284 14.15234375 6.09765625 C15.03463829 11.83257076 12.653374 14.86704437 9.46484375 19.33984375 C8.81515625 20.20996094 8.81515625 20.20996094 8.15234375 21.09765625 C7.12109375 20.72640625 6.08984375 20.35515625 5.02734375 19.97265625 C0.8185842 19.02229119 -0.96929381 19.39496054 -4.84765625 21.09765625 C-7.77128666 17.18207981 -10.4419092 13.60471672 -11.72265625 8.84765625 C-10.32110356 4.44277636 -6.76300278 3.17535599 -2.84765625 1.09765625 C-1.84765625 0.09765625 -1.84765625 0.09765625 0 0 Z " fill="#1C160F" transform="translate(10.84765625,1.90234375)"/>
<path d="M0 0 C2.64 0 5.28 0 8 0 C4 11 4 11 0 13 C0.66 13.66 1.32 14.32 2 15 C1.34 15.66 0.68 16.32 0 17 C-0.99 17 -1.98 17 -3 17 C-3.86646667 15.56988027 -4.71781829 14.13059381 -5.5625 12.6875 C-6.03816406 11.88699219 -6.51382812 11.08648437 -7.00390625 10.26171875 C-8 8 -8 8 -7 5 C-5 4.33333333 -3 3.66666667 -1 3 C-0.67 2.01 -0.34 1.02 0 0 Z " fill="#E98A89" transform="translate(9,4)"/>
<path d="M0 0 C2.9375 0.8125 2.9375 0.8125 6 2 C7 5 7 5 6.00390625 7.26171875 C5.52824219 8.06222656 5.05257813 8.86273438 4.5625 9.6875 C4.08941406 10.49574219 3.61632813 11.30398437 3.12890625 12.13671875 C2.57009766 13.05904297 2.57009766 13.05904297 2 14 C-0.96175123 13.38722388 -2.38058783 12.74627478 -5 11 C-4.46884894 6.48521602 -2.63379708 3.65333143 0 0 Z " fill="#D2B787" transform="translate(17,7)"/>
<path d="M0 0 C0 0.66 0 1.32 0 2 C-0.99 2.495 -0.99 2.495 -2 3 C-1.71125 3.70125 -1.4225 4.4025 -1.125 5.125 C0.02133588 8.05452503 1.02625654 11.00921653 2 14 C3.32 13.34 4.64 12.68 6 12 C5.34 11.34 4.68 10.68 4 10 C3.875 7.375 3.875 7.375 4 5 C4.33 6.32 4.66 7.64 5 9 C5.66 9 6.32 9 7 9 C7.33 8.01 7.66 7.02 8 6 C9 8 9 8 9 11 C9.66 11.66 10.32 12.32 11 13 C6.545 14.485 6.545 14.485 2 16 C-3.88183807 8.12253829 -3.88183807 8.12253829 -4.375 3.4375 C-4.25125 2.633125 -4.1275 1.82875 -4 1 C-2 0 -2 0 0 0 Z " fill="#271C15" transform="translate(4,7)"/>
<path d="M0 0 C2.64 0 5.28 0 8 0 C6.43358249 4.30764815 4.31663844 8.06171464 2 12 C1.34 12 0.68 12 0 12 C-0.76173392 7.6835078 -1.16063604 4.25566547 0 0 Z " fill="#F1BE65" transform="translate(9,4)"/>
<path d="M0 0 C2.9375 0.8125 2.9375 0.8125 6 2 C6.33 2.99 6.66 3.98 7 5 C6.01 5.99 5.02 6.98 4 8 C3.67 6.68 3.34 5.36 3 4 C1.35 4.33 -0.3 4.66 -2 5 C-1.34 3.35 -0.68 1.7 0 0 Z " fill="#E7CA95" transform="translate(17,7)"/>
<path d="M0 0 C1.32 0 2.64 0 4 0 C4 1.65 4 3.3 4 5 C2.35 5.33 0.7 5.66 -1 6 C-1.042721 4.33388095 -1.04063832 2.66617115 -1 1 C-0.67 0.67 -0.34 0.34 0 0 Z " fill="#723B33" transform="translate(16,11)"/>
</svg>
